<?xml version="1.0" encoding="utf-8"?>
<!-- Generator: Adobe Illustrator 15.0.2, SVG Export Plug-In  -->
<!DOCTYPE svg PUBLIC "-//W3C//DTD SVG 1.1//EN" "http://www.w3.org/Graphics/SVG/1.1/DTD/svg11.dtd" [
	<!ENTITY ns_flows "http://ns.adobe.com/Flows/1.0/">
]>
<svg version="1.1"
	 xmlns="http://www.w3.org/2000/svg" xmlns:xlink="http://www.w3.org/1999/xlink" xmlns:a="http://ns.adobe.com/AdobeSVGViewerExtensions/3.0/"
	 x="0px" y="0px" width="774px" height="774px" viewBox="-0.101 -0.266 774 774"
	 overflow="visible" enable-background="new -0.101 -0.266 774 774" xml:space="preserve">
<defs>
</defs>
<path fill="#B72D2D" d="M592.927,0h-412.15C81.096,0,0,81.12,0,180.831v412.042C0,692.599,81.096,773.73,180.777,773.73h412.15
	c99.681,0,180.776-81.132,180.776-180.857V180.831C773.703,81.12,692.607,0,592.927,0z"/>
<path fill="#FFFFFF" d="M676.211,376.877c12.039-55.819-3.224-84.731-40.935-122.442c2.579-27.569,9.033-55.575,8.579-75.569
	c-1-44-5-58-17.801-100.654c-18.111-1.177-31.025-4.843-49.815-4.897c-7.153-0.021-20.666-1.477-27.294-1.208
	c-6.485,0.261-14.695-2.293-20.423-0.445c4.28,12.902,14.428,24.596,22.06,36.008c7.725,11.553,16.089,25.772,22.583,38.332
	c10.314,19.939,4.85,45.206-3.31,67.864c-13.811-5.511-48.199-8.617-63-8c-96,4-108.153,81.013-134,181
	c-15.816,61.184-61.969,118.622-106.923,152c-51.073,37.923-98.111,64.363-160.92,62.156c-9.037-0.315-44.156,2.497-51.719,15.646
	c-8.844,22.198,20.765,39.906,27.857,44.906c17.382,12.255,57.604,28.547,110.304,29.33c58.818,0.876,163.486-35.903,188.329-47.475
	c62.113-28.931,94.158-44.928,173.663-107.114C607.218,494.252,661.209,446.444,676.211,376.877z"/>
</svg>
